# Blender v3.0.0 OBJ File: 'garment.blend'
# www.blender.org
mtllib half_garment.mtl
o Plan_Plan.001
v -2.013791 8.741330 1.848305
v 0.021152 8.759439 1.848305
v -2.080692 14.773912 1.836043
v 0.021152 14.967165 1.838959
v -2.353453 16.737707 1.840264
v 0.021152 17.510048 1.844293
v -0.936649 8.702010 1.848305
v -1.070485 14.853368 1.837209
v -1.229468 17.243006 1.842108
v -2.750731 17.989120 1.845027
v -1.584759 18.465084 1.845967
v -2.787080 8.840231 1.848305
v -2.848384 14.735025 1.836872
v -2.093442 13.564482 1.837849
v -2.012758 12.368583 1.841878
v -1.927470 11.172296 1.846045
v -1.926770 9.961284 1.848268
v 0.021152 10.006523 1.848305
v 0.021152 11.255009 1.846742
v 0.021152 12.490939 1.843275
v 0.021152 13.724996 1.840051
v -0.872246 9.944036 1.848289
v -0.885942 11.182186 1.846231
v -0.985484 12.402872 1.842262
v -1.077395 13.620836 1.838563
v -2.855792 13.552743 1.838696
v -2.781156 12.382110 1.842478
v -2.703429 11.212775 1.846320
v -2.705245 10.031685 1.848287
v 0.021152 14.967165 1.838959
v -2.080692 14.773912 1.836043
v -1.070485 14.853367 1.837209
v -1.955113 9.554468 1.848305
v -1.984452 9.147900 1.848305
v -0.617382 8.721153 1.848305
v -0.298115 8.740295 1.848305
v 0.021152 14.137888 1.839377
v 0.021152 14.551931 1.839002
v -1.417298 14.825128 1.836586
v -1.754499 14.798645 1.836185
v -1.612278 17.073339 1.841299
v -1.987485 16.904850 1.840671
v 0.021152 15.811904 1.839874
v 0.021152 16.660103 1.841838
v -2.080692 14.773912 1.836043
v -2.080692 14.773912 1.836043
v -1.654744 8.728224 1.848305
v -1.295697 8.715117 1.848305
v -0.600353 14.917078 1.838313
v -0.836969 14.884905 1.837726
v -0.507164 17.417763 1.843488
v -0.870414 17.330101 1.842748
v -1.166389 15.644515 1.837795
v -1.212202 16.442245 1.839596
v -1.090047 14.029335 1.837759
v -1.088438 14.440068 1.837292
v -1.978528 18.305780 1.845531
v -2.367582 18.147057 1.845208
v -2.617064 17.571774 1.843481
v -2.485970 17.154583 1.841858
v -1.347260 17.650375 1.843414
v -1.464510 18.057816 1.844731
v -2.732129 9.634516 1.848305
v -2.759605 9.237373 1.848305
v -2.529317 8.807264 1.848305
v -2.271554 8.774297 1.848305
v -2.343698 14.760239 1.836142
v -2.599259 14.747356 1.836426
v -2.100642 14.368587 1.836269
v -2.103852 13.965555 1.836897
v -2.072608 13.164957 1.839048
v -2.044610 12.766502 1.840416
v -1.980391 11.970625 1.843354
v -1.950852 11.572049 1.844769
v -1.913528 10.770856 1.847105
v -1.912248 10.367298 1.847872
v 0.021152 9.175134 1.848305
v 0.021152 9.590828 1.848305
v 0.021152 10.423519 1.848130
v 0.021152 10.840318 1.847582
v 0.021152 11.668017 1.845690
v 0.021152 12.079823 1.844508
v 0.021152 12.901870 1.842070
v 0.021152 13.313088 1.840971
v -0.915068 9.115980 1.848305
v -0.893487 9.529951 1.848305
v -0.861775 10.359140 1.847950
v -0.867394 10.771870 1.847237
v -0.914099 11.590451 1.845012
v -0.948444 11.997150 1.843662
v -1.021679 12.808270 1.840892
v -1.053483 13.214028 1.839632
v -2.864308 14.339255 1.837153
v -2.866024 13.945205 1.837781
v -2.836302 13.161634 1.839830
v -2.810431 12.771558 1.841115
v -2.751513 11.992829 1.843847
v -2.724576 11.603221 1.845152
v -2.691141 10.820998 1.847280
v -2.690750 10.427435 1.847959
v -2.186443 9.984764 1.848269
v -2.445921 10.008221 1.848276
v -2.188227 11.185518 1.846086
v -2.446836 11.199009 1.846179
v -2.272889 12.372581 1.841981
v -2.528927 12.377109 1.842183
v -2.353363 13.559921 1.837988
v -2.607297 13.556056 1.838274
v -1.223912 9.949860 1.848273
v -1.575491 9.955633 1.848265
v -1.236718 11.178572 1.846079
v -1.583976 11.175240 1.846015
v -1.334706 12.390488 1.841971
v -1.677218 12.379052 1.841841
v -1.425538 13.600515 1.838103
v -1.764390 13.581758 1.837860
v -0.276560 9.985665 1.848304
v -0.574396 9.964849 1.848297
v -0.320277 11.230272 1.846528
v -0.604044 11.206202 1.846355
v -0.449394 12.457352 1.842864
v -0.719100 12.429893 1.842523
v -0.571683 13.680415 1.839475
v -0.826458 13.650278 1.838974
v 0.021152 14.967165 1.838959
v 0.021152 14.967165 1.838959
v -2.291185 16.080120 1.838142
v -2.204858 15.424955 1.836623
v -1.070485 14.853368 1.837209
v -1.070485 14.853367 1.837209
v -1.417298 14.825128 1.836586
v -1.754499 14.798645 1.836185
v -0.600353 14.917078 1.838313
v -0.836969 14.884905 1.837726
v -0.836969 14.884905 1.837726
v -0.836969 14.884905 1.837726
v -0.600353 14.917078 1.838313
v -0.600353 14.917078 1.838313
v -1.754499 14.798645 1.836185
v -1.754499 14.798645 1.836185
v -1.417298 14.825128 1.836586
v -1.417298 14.825128 1.836586
v -0.760430 12.836142 1.841202
v -0.797369 13.242702 1.839994
v -0.495562 12.864564 1.841599
v -0.537455 13.272014 1.840444
v -0.637394 11.615547 1.845179
v -0.676910 12.023249 1.843875
v -0.358251 11.640829 1.845408
v -0.402451 12.049663 1.844160
v -0.569389 10.380816 1.847994
v -0.580274 10.794737 1.847320
v -0.276490 10.402308 1.848057
v -0.291928 10.817534 1.847438
v -0.602995 9.135698 1.848305
v -0.588607 9.550243 1.848305
v -0.290921 9.155416 1.848305
v -0.283727 9.570536 1.848305
v -1.711500 12.779270 1.840387
v -1.741691 13.179976 1.839034
v -1.370425 12.793185 1.840549
v -1.401860 13.196314 1.839233
v -1.610053 11.577628 1.844733
v -1.642263 11.978708 1.843315
v -1.264387 11.583790 1.844815
v -1.298198 11.987568 1.843420
v -1.563485 10.364601 1.847860
v -1.567367 10.771035 1.847084
v -1.213245 10.361923 1.847887
v -1.218574 10.771413 1.847129
v -1.627990 9.137260 1.848305
v -1.601237 9.546296 1.848305
v -1.271529 9.126620 1.848305
v -1.247362 9.538124 1.848305
v -2.304498 12.767620 1.840537
v -2.559655 12.769332 1.840772
v -2.332391 13.163237 1.839181
v -2.586810 13.162167 1.839445
v -2.211502 11.582080 1.844831
v -2.469352 11.592474 1.844960
v -2.240805 11.977587 1.843437
v -2.497771 11.984998 1.843603
v -2.172571 10.387263 1.847881
v -2.432050 10.407299 1.847911
v -2.174196 10.787395 1.847128
v -2.433368 10.804102 1.847187
v -2.242836 9.177724 1.848305
v -2.501220 9.207548 1.848305
v -2.214118 9.581150 1.848305
v -2.473124 9.607833 1.848305
v -2.364263 13.958098 1.837034
v -2.618089 13.951376 1.837334
v -2.362019 14.358116 1.836394
v -2.616278 14.348413 1.836695
v -2.114165 17.318756 1.842190
v -2.239578 17.732889 1.843736
v -1.734108 17.484079 1.842721
v -1.854955 17.894966 1.844164
v -1.776241 13.985159 1.836942
v -1.773960 14.390658 1.836359
v -1.438049 14.006391 1.837237
v -1.436165 14.414470 1.836711
v -1.869559 15.496459 1.836757
v -1.941660 16.199301 1.838385
v -1.523015 15.569625 1.837158
v -1.581593 16.320013 1.838881
v -0.889247 15.694687 1.838399
v -0.893075 16.510998 1.840244
v -0.607933 15.745676 1.839098
v -0.569288 16.580559 1.841000
v -0.844442 14.059522 1.838218
v -0.848541 14.470964 1.837788
v -0.595121 14.090424 1.838761
v -0.605198 14.502553 1.838362
vt 0.836846 0.933333
vt 1.000000 0.933333
vt 1.000000 1.000000
vt 0.836846 1.000000
vt 0.837807 1.000000
vt 1.000000 1.000000
vt 1.000000 1.000000
vt 0.836846 1.000000
vt 0.342281 1.000000
vt 0.513422 1.000000
vt 0.510537 1.000000
vt 0.340358 1.000000
vt 0.340358 0.933333
vt 0.510537 0.933333
vt 0.510537 1.000000
vt 0.340358 1.000000
vt 0.340358 1.000000
vt 0.510537 1.000000
vt 0.510537 1.000000
vt 0.340358 1.000000
vt 0.000000 0.933333
vt 0.000000 1.000000
vt 0.000000 1.000000
vt 0.000000 0.933333
vt 0.000000 0.133333
vt 0.000000 0.200000
vt 0.000000 0.200000
vt 0.000000 0.133333
vt 0.000000 0.333333
vt 0.000000 0.400000
vt 0.000000 0.400000
vt 0.000000 0.333333
vt 0.000000 0.533333
vt 0.000000 0.600000
vt 0.000000 0.600000
vt 0.000000 0.533333
vt 0.000000 0.733333
vt 0.000000 0.800000
vt 0.000000 0.800000
vt 0.000000 0.733333
vt 0.340358 0.133333
vt 0.510537 0.133333
vt 0.510537 0.200000
vt 0.340358 0.200000
vt 0.340358 0.333333
vt 0.510537 0.333333
vt 0.510537 0.400000
vt 0.340358 0.400000
vt 0.340358 0.533333
vt 0.510537 0.533333
vt 0.510537 0.600000
vt 0.340358 0.600000
vt 0.340358 0.733333
vt 0.510537 0.733333
vt 0.510537 0.800000
vt 0.340358 0.800000
vt 0.836846 0.133333
vt 1.000000 0.133333
vt 1.000000 0.200000
vt 0.836846 0.200000
vt 0.836846 0.333333
vt 1.000000 0.333333
vt 1.000000 0.400000
vt 0.836846 0.400000
vt 0.836846 0.533333
vt 1.000000 0.533333
vt 1.000000 0.600000
vt 0.836846 0.600000
vt 0.836846 0.733333
vt 1.000000 0.733333
vt 1.000000 0.800000
vt 0.836846 0.800000
vt 0.344204 1.000000
vt 0.516307 1.000000
vt 0.519192 1.000000
vt 0.346128 1.000000
vt 0.838769 1.000000
vt 1.000000 1.000000
vt 1.000000 1.000000
vt 0.839731 1.000000
vt 0.677538 1.000000
vt 0.679461 1.000000
vt 0.673691 1.000000
vt 0.675614 1.000000
vt 0.513422 1.000000
vt 0.837807 1.000000
vt 1.000000 1.000000
vt 0.000000 1.000000
vt 0.172102 1.000000
vt 0.173064 1.000000
vt 0.000000 1.000000
vt 0.000000 1.000000
vt 0.170179 1.000000
vt 0.171141 1.000000
vt 0.000000 1.000000
vt 0.342281 1.000000
vt 0.673691 0.733333
vt 0.673691 0.800000
vt 0.673691 0.600000
vt 0.673691 0.666667
vt 0.510537 0.666667
vt 0.836846 0.666667
vt 1.000000 0.666667
vt 0.673691 0.533333
vt 0.673691 0.400000
vt 0.673691 0.466667
vt 0.510537 0.466667
vt 0.836846 0.466667
vt 1.000000 0.466667
vt 0.673691 0.333333
vt 0.673691 0.200000
vt 0.673691 0.266667
vt 0.510537 0.266667
vt 0.836846 0.266667
vt 1.000000 0.266667
vt 0.673691 0.133333
vt 0.510537 0.000000
vt 0.673691 0.000000
vt 0.673691 0.066667
vt 0.510537 0.066667
vt 0.836846 0.000000
vt 0.836846 0.066667
vt 1.000000 0.000000
vt 1.000000 0.066667
vt 0.000000 0.733333
vt 0.170179 0.733333
vt 0.170179 0.800000
vt 0.000000 0.800000
vt 0.000000 0.600000
vt 0.170179 0.600000
vt 0.170179 0.666667
vt 0.000000 0.666667
vt 0.340358 0.666667
vt 0.000000 0.533333
vt 0.170179 0.533333
vt 0.000000 0.400000
vt 0.170179 0.400000
vt 0.170179 0.466667
vt 0.000000 0.466667
vt 0.340358 0.466667
vt 0.000000 0.333333
vt 0.170179 0.333333
vt 0.000000 0.200000
vt 0.170179 0.200000
vt 0.170179 0.266667
vt 0.000000 0.266667
vt 0.340358 0.266667
vt 0.000000 0.133333
vt 0.170179 0.133333
vt 0.000000 0.000000
vt 0.170179 0.000000
vt 0.170179 0.066667
vt 0.000000 0.066667
vt 0.340358 0.000000
vt 0.340358 0.066667
vt 0.000000 0.666667
vt 0.000000 0.666667
vt 0.000000 0.666667
vt 0.000000 0.600000
vt 0.000000 0.733333
vt 0.000000 0.800000
vt 0.000000 0.466667
vt 0.000000 0.466667
vt 0.000000 0.466667
vt 0.000000 0.400000
vt 0.000000 0.533333
vt 0.000000 0.266667
vt 0.000000 0.266667
vt 0.000000 0.266667
vt 0.000000 0.200000
vt 0.000000 0.333333
vt 0.000000 0.000000
vt 0.000000 0.066667
vt 0.000000 0.066667
vt 0.000000 0.000000
vt 0.000000 0.066667
vt 0.000000 0.000000
vt 0.000000 0.133333
vt 0.000000 0.866667
vt 0.000000 0.866667
vt 0.000000 0.866667
vt 0.000000 0.866667
vt 0.000000 0.933333
vt 0.000000 0.933333
vt 0.000000 1.000000
vt 0.000000 1.000000
vt 0.170179 1.000000
vt 0.170179 1.000000
vt 0.000000 1.000000
vt 0.000000 1.000000
vt 0.170179 1.000000
vt 0.170179 1.000000
vt 0.000000 1.000000
vt 0.340358 1.000000
vt 0.510537 1.000000
vt 0.170179 0.933333
vt 0.170179 0.866667
vt 0.340358 0.866667
vt 0.510537 0.866667
vt 0.000000 1.000000
vt 0.171141 1.000000
vt 0.172102 1.000000
vt 0.000000 1.000000
vt 0.344205 1.000000
vt 0.516307 1.000000
vt 0.675614 1.000000
vt 0.673691 1.000000
vt 0.677538 1.000000
vt 0.838769 1.000000
vt 1.000000 1.000000
vt 0.673691 0.933333
vt 0.673691 0.866667
vt 0.836846 0.866667
vt 1.000000 0.866667
vn -0.0010 0.0001 1.0000
vn -0.0010 -0.0029 1.0000
vn -0.0008 -0.0032 1.0000
vn -0.0018 0.0003 1.0000
vn 0.0000 -0.0032 1.0000
vn 0.0018 0.0006 1.0000
vn 0.0000 0.0001 1.0000
vn 0.0006 0.0025 1.0000
vn 0.0012 0.0037 1.0000
vn 0.0016 0.0030 1.0000
vn -0.0004 0.0025 1.0000
vn -0.0009 0.0034 1.0000
vn -0.0014 0.0026 1.0000
vn -0.0000 0.0000 1.0000
vn -0.0007 0.0021 1.0000
vn -0.0011 0.0030 1.0000
vn -0.0011 0.0023 1.0000
vn 0.0000 0.0000 -1.0000
vn -0.0018 0.0024 1.0000
vn -0.0021 0.0023 1.0000
vn -0.0014 0.0032 1.0000
vn -0.0016 0.0029 1.0000
vn -0.0017 0.0030 1.0000
vn -0.0019 0.0027 1.0000
vn -0.0011 0.0027 1.0000
vn -0.0012 0.0033 1.0000
vn -0.0015 0.0031 1.0000
vn -0.0008 0.0029 1.0000
vn -0.0010 0.0032 1.0000
vn -0.0010 0.0027 1.0000
vn -0.0012 0.0030 1.0000
vn -0.0009 0.0026 1.0000
vn -0.0010 0.0029 1.0000
vn -0.0006 0.0024 1.0000
vn -0.0007 0.0022 1.0000
vn -0.0001 0.0008 1.0000
vn -0.0003 0.0017 1.0000
vn -0.0002 0.0007 1.0000
vn -0.0004 0.0015 1.0000
vn -0.0002 0.0005 1.0000
vn -0.0005 0.0014 1.0000
vn -0.0001 0.0030 1.0000
vn -0.0008 0.0028 1.0000
vn -0.0000 0.0036 1.0000
vn -0.0001 0.0034 1.0000
vn -0.0006 0.0035 1.0000
vn -0.0007 0.0033 1.0000
vn -0.0010 0.0034 1.0000
vn -0.0012 0.0031 1.0000
vn 0.0000 0.0037 1.0000
vn -0.0004 0.0036 1.0000
vn 0.0001 0.0032 1.0000
vn 0.0000 0.0035 1.0000
vn -0.0003 0.0031 1.0000
vn -0.0003 0.0035 1.0000
vn -0.0005 0.0030 1.0000
vn 0.0001 0.0026 1.0000
vn -0.0002 0.0026 1.0000
vn 0.0000 0.0010 1.0000
vn 0.0001 0.0019 1.0000
vn -0.0001 0.0019 1.0000
vn -0.0001 0.0009 1.0000
vn -0.0002 0.0018 1.0000
vn 0.0013 0.0036 1.0000
vn 0.0015 0.0034 1.0000
vn 0.0005 0.0037 1.0000
vn 0.0009 0.0037 1.0000
vn 0.0005 0.0035 1.0000
vn 0.0010 0.0035 1.0000
vn 0.0005 0.0030 1.0000
vn 0.0011 0.0030 1.0000
vn 0.0008 0.0031 1.0000
vn 0.0003 0.0032 1.0000
vn 0.0006 0.0032 1.0000
vn 0.0004 0.0036 1.0000
vn 0.0007 0.0035 1.0000
vn 0.0004 0.0037 1.0000
vn 0.0008 0.0037 1.0000
vn 0.0002 0.0009 1.0000
vn 0.0004 0.0018 1.0000
vn 0.0001 0.0010 1.0000
vn 0.0001 0.0009 1.0000
vn 0.0002 0.0019 1.0000
vn 0.0003 0.0019 1.0000
vn 0.0003 0.0026 1.0000
vn 0.0004 0.0026 1.0000
vn 0.0017 0.0024 1.0000
vn 0.0018 0.0016 1.0000
vn 0.0005 0.0024 1.0000
vn 0.0011 0.0024 1.0000
vn 0.0004 0.0016 1.0000
vn 0.0011 0.0016 1.0000
vn 0.0004 0.0006 1.0000
vn 0.0011 0.0006 1.0000
vn 0.0008 -0.0034 1.0000
vn 0.0004 -0.0033 1.0000
vn 0.0006 -0.0036 1.0000
vn 0.0008 -0.0036 1.0000
vn 0.0000 -0.0036 1.0000
vn 0.0003 -0.0035 1.0000
vn -0.0004 -0.0035 1.0000
vn -0.0002 -0.0034 1.0000
vn -0.0004 0.0005 1.0000
vn -0.0011 0.0004 1.0000
vn -0.0002 0.0023 1.0000
vn -0.0003 0.0015 1.0000
vn -0.0009 0.0022 1.0000
vn -0.0010 0.0014 1.0000
vn -0.0015 0.0020 1.0000
vn -0.0017 0.0012 1.0000
vn 0.0004 -0.0032 1.0000
vn -0.0003 -0.0032 1.0000
vn -0.0003 -0.0009 1.0000
vn 0.0001 -0.0023 1.0000
vn -0.0010 -0.0010 1.0000
vn -0.0006 -0.0024 1.0000
vn -0.0016 -0.0010 1.0000
vn -0.0012 -0.0024 1.0000
vn -0.0012 -0.0031 1.0000
vn -0.0015 -0.0029 1.0000
vn -0.0020 -0.0010 1.0000
vn -0.0016 -0.0023 1.0000
vn -0.0023 -0.0010 1.0000
vn -0.0020 -0.0022 1.0000
vn -0.0011 -0.0023 1.0000
vn -0.0022 0.0003 1.0000
vn -0.0024 0.0002 1.0000
vn -0.0020 0.0018 1.0000
vn -0.0021 0.0011 1.0000
vn -0.0023 0.0017 1.0000
vn -0.0024 0.0010 1.0000
vn -0.0011 0.0017 1.0000
vn -0.0011 0.0009 1.0000
usemtl None
s off
f 214/1/1 38/2/1 4/3/1 49/4/1
f 210/5/2 44/6/2 6/7/2 51/8/2
f 206/9/3 54/10/3 9/11/3 41/12/3
f 202/13/4 56/14/4 8/15/4 39/16/4
f 198/17/5 62/18/5 11/19/5 57/20/5
f 194/21/6 68/22/6 13/23/6 93/24/6
f 190/25/7 102/26/7 29/27/7 63/28/7
f 186/29/8 104/30/8 28/31/8 99/32/8
f 182/33/9 106/34/9 27/35/9 97/36/9
f 178/37/10 108/38/10 26/39/10 95/40/10
f 174/41/7 86/42/7 22/43/7 109/44/7
f 170/45/11 88/46/11 23/47/11 111/48/11
f 166/49/12 90/50/12 24/51/12 113/52/12
f 162/53/13 92/54/13 25/55/13 115/56/13
f 158/57/14 78/58/14 18/59/14 117/60/14
f 154/61/15 80/62/15 19/63/15 119/64/15
f 150/65/16 82/66/16 20/67/16 121/68/16
f 146/69/17 84/70/17 21/71/17 123/72/17
f 142/73/14 130/74/14 32/75/14 131/76/14
f 138/77/14 126/78/14 30/79/14 133/80/14
f 130/74/14 136/81/14 134/82/14 32/75/14
f 136/81/14 138/77/14 133/80/14 134/82/14
f 8/15/14 50/83/14 135/84/14 129/85/14
f 129/85/18 135/84/18 136/81/18 130/74/18
f 50/83/14 49/4/14 137/86/14 135/84/14
f 135/84/14 137/86/14 138/77/14 136/81/14
f 49/4/14 4/3/14 125/87/14 137/86/14
f 137/86/14 125/87/14 126/78/14 138/77/14
f 45/88/14 140/89/14 132/90/14 31/91/14
f 140/89/14 142/73/14 131/76/14 132/90/14
f 3/92/14 40/93/14 139/94/14 46/95/14
f 46/95/14 139/94/14 140/89/14 45/88/14
f 40/93/14 39/16/14 141/96/14 139/94/14
f 139/94/14 141/96/14 142/73/14 140/89/14
f 39/16/14 8/15/14 129/85/14 141/96/14
f 141/96/18 129/85/18 130/74/18 142/73/18
f 92/54/19 144/97/19 124/98/19 25/55/19
f 144/97/20 146/69/20 123/72/20 124/98/20
f 24/51/21 122/99/21 143/100/21 91/101/21
f 91/101/22 143/100/22 144/97/22 92/54/22
f 122/99/23 121/68/23 145/102/23 143/100/23
f 143/100/24 145/102/24 146/69/24 144/97/24
f 121/68/16 20/67/16 83/103/16 145/102/16
f 145/102/25 83/103/25 84/70/25 146/69/25
f 90/50/26 148/104/26 122/99/26 24/51/26
f 148/104/27 150/65/27 121/68/27 122/99/27
f 23/47/28 120/105/28 147/106/28 89/107/28
f 89/107/29 147/106/29 148/104/29 90/50/29
f 120/105/30 119/64/30 149/108/30 147/106/30
f 147/106/31 149/108/31 150/65/31 148/104/31
f 119/64/32 19/63/32 81/109/32 149/108/32
f 149/108/33 81/109/33 82/66/33 150/65/33
f 88/46/34 152/110/34 120/105/34 23/47/34
f 152/110/35 154/61/35 119/64/35 120/105/35
f 22/43/36 118/111/36 151/112/36 87/113/36
f 87/113/37 151/112/37 152/110/37 88/46/37
f 118/111/38 117/60/38 153/114/38 151/112/38
f 151/112/39 153/114/39 154/61/39 152/110/39
f 117/60/40 18/59/40 79/115/40 153/114/40
f 153/114/41 79/115/41 80/62/41 154/61/41
f 86/42/14 156/116/14 118/111/14 22/43/14
f 156/116/14 158/57/14 117/60/14 118/111/14
f 7/117/14 35/118/14 155/119/14 85/120/14
f 85/120/14 155/119/14 156/116/14 86/42/14
f 35/118/14 36/121/14 157/122/14 155/119/14
f 155/119/14 157/122/14 158/57/14 156/116/14
f 36/121/14 2/123/14 77/124/14 157/122/14
f 157/122/14 77/124/14 78/58/14 158/57/14
f 71/125/42 160/126/42 116/127/42 14/128/42
f 160/126/43 162/53/43 115/56/43 116/127/43
f 15/129/44 114/130/44 159/131/44 72/132/44
f 72/132/45 159/131/45 160/126/45 71/125/45
f 114/130/46 113/52/46 161/133/46 159/131/46
f 159/131/47 161/133/47 162/53/47 160/126/47
f 113/52/48 24/51/48 91/101/48 161/133/48
f 161/133/49 91/101/49 92/54/49 162/53/49
f 73/134/50 164/135/50 114/130/50 15/129/50
f 164/135/51 166/49/51 113/52/51 114/130/51
f 16/136/52 112/137/52 163/138/52 74/139/52
f 74/139/53 163/138/53 164/135/53 73/134/53
f 112/137/54 111/48/54 165/140/54 163/138/54
f 163/138/55 165/140/55 166/49/55 164/135/55
f 111/48/56 23/47/56 89/107/56 165/140/56
f 165/140/47 89/107/47 90/50/47 166/49/47
f 75/141/57 168/142/57 112/137/57 16/136/57
f 168/142/58 170/45/58 111/48/58 112/137/58
f 17/143/59 110/144/59 167/145/59 76/146/59
f 76/146/60 167/145/60 168/142/60 75/141/60
f 110/144/59 109/44/59 169/147/59 167/145/59
f 167/145/61 169/147/61 170/45/61 168/142/61
f 109/44/62 22/43/62 87/113/62 169/147/62
f 169/147/63 87/113/63 88/46/63 170/45/63
f 33/148/7 172/149/7 110/144/7 17/143/7
f 172/149/7 174/41/7 109/44/7 110/144/7
f 1/150/14 47/151/14 171/152/14 34/153/14
f 34/153/14 171/152/14 172/149/14 33/148/14
f 47/151/14 48/154/14 173/155/14 171/152/14
f 171/152/14 173/155/14 174/41/14 172/149/14
f 48/154/14 7/117/14 85/120/14 173/155/14
f 173/155/14 85/120/14 86/42/14 174/41/14
f 106/34/64 176/156/64 96/157/64 27/35/64
f 176/156/65 178/37/65 95/40/65 96/157/65
f 15/129/66 72/132/66 175/158/66 105/159/66
f 105/159/67 175/158/67 176/156/67 106/34/67
f 72/132/68 71/125/68 177/160/68 175/158/68
f 175/158/69 177/160/69 178/37/69 176/156/69
f 71/125/70 14/128/70 107/161/70 177/160/70
f 177/160/71 107/161/71 108/38/71 178/37/71
f 104/30/72 180/162/72 98/163/72 28/31/72
f 180/162/69 182/33/69 97/36/69 98/163/69
f 16/136/73 74/139/73 179/164/73 103/165/73
f 103/165/74 179/164/74 180/162/74 104/30/74
f 74/139/75 73/134/75 181/166/75 179/164/75
f 179/164/76 181/166/76 182/33/76 180/162/76
f 73/134/77 15/129/77 105/159/77 181/166/77
f 181/166/78 105/159/78 106/34/78 182/33/78
f 102/26/79 184/167/79 100/168/79 29/27/79
f 184/167/80 186/29/80 99/32/80 100/168/80
f 17/143/81 76/146/81 183/169/81 101/170/81
f 101/170/82 183/169/82 184/167/82 102/26/82
f 76/146/83 75/141/83 185/171/83 183/169/83
f 183/169/84 185/171/84 186/29/84 184/167/84
f 75/141/85 16/136/85 103/165/85 185/171/85
f 185/171/86 103/165/86 104/30/86 186/29/86
f 65/172/14 188/173/14 64/174/14 12/175/14
f 188/173/14 190/25/14 63/28/14 64/174/14
f 1/150/14 34/153/14 187/176/14 66/177/14
f 66/177/14 187/176/14 188/173/14 65/172/14
f 34/153/14 33/148/14 189/178/14 187/176/14
f 187/176/14 189/178/14 190/25/14 188/173/14
f 33/148/7 17/143/7 101/170/7 189/178/7
f 189/178/7 101/170/7 102/26/7 190/25/7
f 108/38/87 192/179/87 94/180/87 26/39/87
f 192/179/88 194/21/88 93/24/88 94/180/88
f 14/128/89 70/181/89 191/182/89 107/161/89
f 107/161/90 191/182/90 192/179/90 108/38/90
f 70/181/91 69/183/91 193/184/91 191/182/91
f 191/182/92 193/184/92 194/21/92 192/179/92
f 69/183/93 3/92/93 67/185/93 193/184/93
f 193/184/94 67/185/94 68/22/94 194/21/94
f 59/186/95 196/187/95 58/188/95 10/189/95
f 196/187/96 198/17/96 57/20/96 58/188/96
f 5/190/97 42/191/97 195/192/97 60/193/97
f 60/193/98 195/192/98 196/187/98 59/186/98
f 42/191/99 41/12/99 197/194/99 195/192/99
f 195/192/100 197/194/100 198/17/100 196/187/100
f 41/12/101 9/11/101 61/195/101 197/194/101
f 197/194/102 61/195/102 62/18/102 198/17/102
f 69/183/103 200/196/103 40/93/103 3/92/103
f 200/196/104 202/13/104 39/16/104 40/93/104
f 14/128/105 116/127/105 199/197/105 70/181/105
f 70/181/106 199/197/106 200/196/106 69/183/106
f 116/127/107 115/56/107 201/198/107 199/197/107
f 199/197/108 201/198/108 202/13/108 200/196/108
f 115/56/109 25/55/109 55/199/109 201/198/109
f 201/198/110 55/199/110 56/14/110 202/13/110
f 127/200/111 204/201/111 42/191/111 5/190/111
f 204/201/112 206/9/112 41/12/112 42/191/112
f 31/91/113 132/90/113 203/202/113 128/203/113
f 128/203/114 203/202/114 204/201/114 127/200/114
f 132/90/115 131/76/115 205/204/115 203/202/115
f 203/202/116 205/204/116 206/9/116 204/201/116
f 131/76/117 32/75/117 53/205/117 205/204/117
f 205/204/118 53/205/118 54/10/118 206/9/118
f 54/10/119 208/206/119 52/207/119 9/11/119
f 208/206/120 210/5/120 51/8/120 52/207/120
f 32/75/121 134/82/121 207/208/121 53/205/121
f 53/205/122 207/208/122 208/206/122 54/10/122
f 134/82/123 133/80/123 209/209/123 207/208/123
f 207/208/124 209/209/124 210/5/124 208/206/124
f 133/80/115 30/79/115 43/210/115 209/209/115
f 209/209/125 43/210/125 44/6/125 210/5/125
f 56/14/126 212/211/126 50/83/126 8/15/126
f 212/211/127 214/1/127 49/4/127 50/83/127
f 25/55/128 124/98/128 211/212/128 55/199/128
f 55/199/129 211/212/129 212/211/129 56/14/129
f 124/98/130 123/72/130 213/213/130 211/212/130
f 211/212/131 213/213/131 214/1/131 212/211/131
f 123/72/132 21/71/132 37/214/132 213/213/132
f 213/213/133 37/214/133 38/2/133 214/1/133
