# Blender v3.0.0 OBJ File: 'garment.blend'
# www.blender.org
mtllib plane.mtl
o Plan.001_Plan.003
v -2.574468 12.303578 3.775806
v 2.616772 12.303578 3.775806
v -2.574468 17.494820 3.775806
v 2.616772 17.494820 3.775806
v -2.574468 14.899199 3.775806
v 2.616772 14.899199 3.775806
v 0.021152 12.303578 3.775806
v 0.021152 17.494820 3.775806
v 0.021152 14.899199 3.775806
vt 0.500000 0.500000
vt 1.000000 0.500000
vt 1.000000 1.000000
vt 0.500000 1.000000
vt 0.500000 0.000000
vt 1.000000 0.000000
vt 0.000000 0.000000
vt 0.000000 0.500000
vt 0.000000 1.000000
vn 0.0000 0.0000 1.0000
usemtl None
s off
f 9/1/1 6/2/1 4/3/1 8/4/1
f 7/5/1 2/6/1 6/2/1 9/1/1
f 1/7/1 7/5/1 9/1/1 5/8/1
f 5/8/1 9/1/1 8/4/1 3/9/1
